<svg width="200" height="200" viewBox="0 0 200 200" fill="none" xmlns="http://www.w3.org/2000/svg">
  <!-- 背景 -->
  <rect width="200" height="200" rx="20" fill="url(#gradient)"/>
  
  <!-- 神经网络节点 -->
  <g transform="translate(30, 40)">
    <!-- 输入层 -->
    <circle cx="20" cy="20" r="8" fill="#3B82F6" opacity="0.8"/>
    <circle cx="20" cy="40" r="8" fill="#3B82F6" opacity="0.8"/>
    <circle cx="20" cy="60" r="8" fill="#3B82F6" opacity="0.8"/>
    
    <!-- 隐藏层 -->
    <circle cx="60" cy="15" r="8" fill="#10B981" opacity="0.8"/>
    <circle cx="60" cy="35" r="8" fill="#10B981" opacity="0.8"/>
    <circle cx="60" cy="55" r="8" fill="#10B981" opacity="0.8"/>
    <circle cx="60" cy="75" r="8" fill="#10B981" opacity="0.8"/>
    
    <!-- 输出层 -->
    <circle cx="100" cy="30" r="8" fill="#F59E0B" opacity="0.8"/>
    <circle cx="100" cy="50" r="8" fill="#F59E0B" opacity="0.8"/>
    
    <!-- 连接线 -->
    <path d="M28 20 L52 15" stroke="#6B7280" stroke-width="1" opacity="0.6"/>
    <path d="M28 20 L52 35" stroke="#6B7280" stroke-width="1" opacity="0.6"/>
    <path d="M28 20 L52 55" stroke="#6B7280" stroke-width="1" opacity="0.6"/>
    <path d="M28 40 L52 15" stroke="#6B7280" stroke-width="1" opacity="0.6"/>
    <path d="M28 40 L52 35" stroke="#6B7280" stroke-width="1" opacity="0.6"/>
    <path d="M28 40 L52 55" stroke="#6B7280" stroke-width="1" opacity="0.6"/>
    <path d="M28 60 L52 35" stroke="#6B7280" stroke-width="1" opacity="0.6"/>
    <path d="M28 60 L52 55" stroke="#6B7280" stroke-width="1" opacity="0.6"/>
    <path d="M28 60 L52 75" stroke="#6B7280" stroke-width="1" opacity="0.6"/>
    
    <path d="M68 15 L92 30" stroke="#6B7280" stroke-width="1" opacity="0.6"/>
    <path d="M68 15 L92 50" stroke="#6B7280" stroke-width="1" opacity="0.6"/>
    <path d="M68 35 L92 30" stroke="#6B7280" stroke-width="1" opacity="0.6"/>
    <path d="M68 35 L92 50" stroke="#6B7280" stroke-width="1" opacity="0.6"/>
    <path d="M68 55 L92 30" stroke="#6B7280" stroke-width="1" opacity="0.6"/>
    <path d="M68 55 L92 50" stroke="#6B7280" stroke-width="1" opacity="0.6"/>
    <path d="M68 75 L92 30" stroke="#6B7280" stroke-width="1" opacity="0.6"/>
    <path d="M68 75 L92 50" stroke="#6B7280" stroke-width="1" opacity="0.6"/>
  </g>
  
  <!-- 数据流 -->
  <g transform="translate(120, 80)">
    <!-- 数据点 -->
    <circle cx="0" cy="0" r="3" fill="#EF4444"/>
    <circle cx="15" cy="5" r="3" fill="#EF4444"/>
    <circle cx="30" cy="-5" r="3" fill="#EF4444"/>
    <circle cx="45" cy="10" r="3" fill="#EF4444"/>
    <circle cx="60" cy="0" r="3" fill="#EF4444"/>
    
    <!-- 差分隐私噪声 -->
    <circle cx="5" cy="15" r="2" fill="#8B5CF6" opacity="0.7"/>
    <circle cx="20" cy="20" r="2" fill="#8B5CF6" opacity="0.7"/>
    <circle cx="35" cy="10" r="2" fill="#8B5CF6" opacity="0.7"/>
    <circle cx="50" cy="25" r="2" fill="#8B5CF6" opacity="0.7"/>
    <circle cx="65" cy="15" r="2" fill="#8B5CF6" opacity="0.7"/>
  </g>
  
  <!-- 图表元素 -->
  <g transform="translate(140, 140)">
    <!-- 散点图 -->
    <circle cx="10" cy="10" r="2" fill="#3B82F6"/>
    <circle cx="15" cy="15" r="2" fill="#10B981"/>
    <circle cx="20" cy="8" r="2" fill="#F59E0B"/>
    <circle cx="25" cy="18" r="2" fill="#EF4444"/>
    <circle cx="30" cy="12" r="2" fill="#8B5CF6"/>
    
    <!-- 关系线 -->
    <path d="M10 10 L15 15" stroke="#6B7280" stroke-width="1" opacity="0.5"/>
    <path d="M15 15 L20 8" stroke="#6B7280" stroke-width="1" opacity="0.5"/>
    <path d="M20 8 L25 18" stroke="#6B7280" stroke-width="1" opacity="0.5"/>
    <path d="M25 18 L30 12" stroke="#6B7280" stroke-width="1" opacity="0.5"/>
  </g>
  
  <!-- 隐私保护图标 -->
  <g transform="translate(160, 30)">
    <circle cx="15" cy="15" r="12" fill="#10B981" opacity="0.8"/>
    <path d="M10 15 L13 18 L20 12" stroke="white" stroke-width="2" stroke-linecap="round" stroke-linejoin="round"/>
  </g>
  
  <!-- AI 处理图标 -->
  <g transform="translate(50, 160)">
    <!-- 齿轮 -->
    <circle cx="15" cy="15" r="10" fill="#6B7280" opacity="0.8"/>
    <circle cx="15" cy="15" r="5" fill="#9CA3AF"/>
    <!-- 齿轮齿 -->
    <rect x="13" y="5" width="4" height="3" fill="#374151"/>
    <rect x="13" y="22" width="4" height="3" fill="#374151"/>
    <rect x="5" y="13" width="3" height="4" fill="#374151"/>
    <rect x="22" y="13" width="3" height="4" fill="#374151"/>
  </g>
  
  <!-- 渐变定义 -->
  <defs>
    <linearGradient id="gradient" x1="0%" y1="0%" x2="100%" y2="100%">
      <stop offset="0%" style="stop-color:#1E40AF;stop-opacity:1" />
      <stop offset="100%" style="stop-color:#7C3AED;stop-opacity:1" />
    </linearGradient>
  </defs>
</svg> 