<svg width="200" height="200" viewBox="0 0 200 200" fill="none" xmlns="http://www.w3.org/2000/svg">
  <!-- 背景 -->
  <rect width="200" height="200" rx="20" fill="url(#gradient)"/>
  
  <!-- 工厂建筑 -->
  <g transform="translate(30, 60)">
    <!-- 主建筑 -->
    <rect x="0" y="20" width="80" height="60" fill="#4B5563" stroke="#374151" stroke-width="2"/>
    
    <!-- 屋顶 -->
    <polygon points="0,20 40,0 80,20" fill="#6B7280" stroke="#374151" stroke-width="2"/>
    
    <!-- 烟囱 -->
    <rect x="60" y="0" width="8" height="20" fill="#6B7280" stroke="#374151" stroke-width="1"/>
    <rect x="58" y="-5" width="12" height="5" fill="#9CA3AF"/>
    
    <!-- 窗户 -->
    <rect x="10" y="30" width="15" height="15" fill="#87CEEB" stroke="#374151" stroke-width="1"/>
    <rect x="35" y="30" width="15" height="15" fill="#87CEEB" stroke="#374151" stroke-width="1"/>
    <rect x="60" y="30" width="15" height="15" fill="#87CEEB" stroke="#374151" stroke-width="1"/>
    
    <!-- 门 -->
    <rect x="30" y="50" width="20" height="30" fill="#8B4513" stroke="#374151" stroke-width="1"/>
  </g>
  
  <!-- 监控面板 -->
  <g transform="translate(120, 40)">
    <!-- 面板背景 -->
    <rect x="0" y="0" width="60" height="80" rx="8" fill="#1F2937" stroke="#374151" stroke-width="2"/>
    
    <!-- 屏幕 -->
    <rect x="5" y="5" width="50" height="30" fill="#10B981" stroke="#374151" stroke-width="1"/>
    
    <!-- 按钮 -->
    <circle cx="15" cy="45" r="3" fill="#EF4444"/>
    <circle cx="25" cy="45" r="3" fill="#F59E0B"/>
    <circle cx="35" cy="45" r="3" fill="#10B981"/>
    <circle cx="45" cy="45" r="3" fill="#3B82F6"/>
    
    <!-- 指示灯 -->
    <circle cx="15" cy="60" r="2" fill="#EF4444"/>
    <circle cx="25" cy="60" r="2" fill="#F59E0B"/>
    <circle cx="35" cy="60" r="2" fill="#10B981"/>
    <circle cx="45" cy="60" r="2" fill="#3B82F6"/>
    
    <!-- 数据线 -->
    <path d="M5 70 L55 70" stroke="#6B7280" stroke-width="1"/>
    <path d="M5 75 L40 75" stroke="#6B7280" stroke-width="1"/>
  </g>
  
  <!-- 齿轮 -->
  <g transform="translate(140, 140)">
    <circle cx="20" cy="20" r="15" fill="#6B7280" stroke="#374151" stroke-width="1"/>
    <circle cx="20" cy="20" r="8" fill="#9CA3AF"/>
    <!-- 齿轮齿 -->
    <rect x="18" y="5" width="4" height="6" fill="#374151"/>
    <rect x="18" y="29" width="4" height="6" fill="#374151"/>
    <rect x="5" y="18" width="6" height="4" fill="#374151"/>
    <rect x="29" y="18" width="6" height="4" fill="#374151"/>
    <rect x="8" y="8" width="4" height="4" fill="#374151"/>
    <rect x="28" y="8" width="4" height="4" fill="#374151"/>
    <rect x="8" y="28" width="4" height="4" fill="#374151"/>
    <rect x="28" y="28" width="4" height="4" fill="#374151"/>
  </g>
  
  <!-- 数据流 -->
  <g transform="translate(80, 100)">
    <path d="M0 0 L20 0 L20 10 L40 10" stroke="#3B82F6" stroke-width="2" fill="none" marker-end="url(#arrowhead)"/>
    <path d="M0 20 L30 20 L30 30 L50 30" stroke="#10B981" stroke-width="2" fill="none" marker-end="url(#arrowhead)"/>
  </g>
  
  <!-- 箭头标记 -->
  <defs>
    <marker id="arrowhead" markerWidth="10" markerHeight="7" refX="9" refY="3.5" orient="auto">
      <polygon points="0 0, 10 3.5, 0 7" fill="#3B82F6"/>
    </marker>
  </defs>
  
  <!-- 渐变定义 -->
  <defs>
    <linearGradient id="gradient" x1="0%" y1="0%" x2="100%" y2="100%">
      <stop offset="0%" style="stop-color:#6B7280;stop-opacity:1" />
      <stop offset="100%" style="stop-color:#374151;stop-opacity:1" />
    </linearGradient>
  </defs>
</svg> 