<svg width="200" height="200" viewBox="0 0 200 200" fill="none" xmlns="http://www.w3.org/2000/svg">
  <!-- 背景 -->
  <rect width="200" height="200" rx="20" fill="url(#gradient)"/>
  
  <!-- 图表容器 -->
  <g transform="translate(30, 40)">
    <!-- 背景网格 -->
    <rect x="0" y="0" width="140" height="120" rx="8" fill="white" stroke="#E5E7EB" stroke-width="1"/>
    
    <!-- 网格线 -->
    <line x1="0" y1="30" x2="140" y2="30" stroke="#F3F4F6" stroke-width="1"/>
    <line x1="0" y1="60" x2="140" y2="60" stroke="#F3F4F6" stroke-width="1"/>
    <line x1="0" y1="90" x2="140" y2="90" stroke="#F3F4F6" stroke-width="1"/>
    
    <!-- 柱状图 -->
    <rect x="20" y="80" width="15" height="40" fill="#3B82F6" rx="2"/>
    <rect x="45" y="60" width="15" height="60" fill="#10B981" rx="2"/>
    <rect x="70" y="40" width="15" height="80" fill="#F59E0B" rx="2"/>
    <rect x="95" y="70" width="15" height="50" fill="#EF4444" rx="2"/>
    <rect x="120" y="50" width="15" height="70" fill="#8B5CF6" rx="2"/>
    
    <!-- 折线图 -->
    <path d="M20 100 L45 80 L70 60 L95 70 L120 50" stroke="#3B82F6" stroke-width="3" fill="none"/>
    <circle cx="20" cy="100" r="3" fill="#3B82F6"/>
    <circle cx="45" cy="80" r="3" fill="#3B82F6"/>
    <circle cx="70" cy="60" r="3" fill="#3B82F6"/>
    <circle cx="95" cy="70" r="3" fill="#3B82F6"/>
    <circle cx="120" cy="50" r="3" fill="#3B82F6"/>
  </g>
  
  <!-- 饼图 -->
  <g transform="translate(160, 80)">
    <circle cx="20" cy="20" r="15" fill="none" stroke="#E5E7EB" stroke-width="2"/>
    <path d="M20 5 A15 15 0 0 1 35 20 L20 20 Z" fill="#3B82F6"/>
    <path d="M35 20 A15 15 0 0 1 20 35 L20 20 Z" fill="#10B981"/>
    <path d="M20 35 A15 15 0 0 1 5 20 L20 20 Z" fill="#F59E0B"/>
    <path d="M5 20 A15 15 0 0 1 20 5 L20 20 Z" fill="#EF4444"/>
  </g>
  
  <!-- 数据点 -->
  <g transform="translate(50, 160)">
    <circle cx="0" cy="0" r="4" fill="#3B82F6"/>
    <circle cx="20" cy="0" r="4" fill="#10B981"/>
    <circle cx="40" cy="0" r="4" fill="#F59E0B"/>
    <circle cx="60" cy="0" r="4" fill="#EF4444"/>
  </g>
  
  <!-- 渐变定义 -->
  <defs>
    <linearGradient id="gradient" x1="0%" y1="0%" x2="100%" y2="100%">
      <stop offset="0%" style="stop-color:#3B82F6;stop-opacity:1" />
      <stop offset="100%" style="stop-color:#8B5CF6;stop-opacity:1" />
    </linearGradient>
  </defs>
</svg> 