<svg width="200" height="200" viewBox="0 0 200 200" fill="none" xmlns="http://www.w3.org/2000/svg">
  <!-- 背景 -->
  <rect width="200" height="200" rx="20" fill="url(#gradient)"/>
  
  <!-- 出租车 -->
  <g transform="translate(40, 60)">
    <!-- 车身 -->
    <rect x="0" y="20" width="120" height="40" rx="8" fill="#FFD700" stroke="#FFA500" stroke-width="2"/>
    
    <!-- 车顶 -->
    <rect x="10" y="10" width="100" height="20" rx="8" fill="#FFD700" stroke="#FFA500" stroke-width="2"/>
    
    <!-- 车窗 -->
    <rect x="15" y="15" width="30" height="10" rx="2" fill="#87CEEB"/>
    <rect x="55" y="15" width="30" height="10" rx="2" fill="#87CEEB"/>
    <rect x="95" y="15" width="10" height="10" rx="2" fill="#87CEEB"/>
    
    <!-- 车门 -->
    <rect x="20" y="25" width="25" height="30" rx="2" fill="#FFA500"/>
    <rect x="55" y="25" width="25" height="30" rx="2" fill="#FFA500"/>
    <rect x="90" y="25" width="25" height="30" rx="2" fill="#FFA500"/>
    
    <!-- 车轮 -->
    <circle cx="25" cy="70" r="8" fill="#333"/>
    <circle cx="25" cy="70" r="4" fill="#666"/>
    <circle cx="95" cy="70" r="8" fill="#333"/>
    <circle cx="95" cy="70" r="4" fill="#666"/>
    
    <!-- 车灯 -->
    <circle cx="5" cy="35" r="3" fill="#FF6B6B"/>
    <circle cx="115" cy="35" r="3" fill="#4ECDC4"/>
  </g>
  
  <!-- GPS 定位图标 -->
  <g transform="translate(160, 30)">
    <circle cx="15" cy="15" r="12" fill="#4CAF50" opacity="0.8"/>
    <circle cx="15" cy="15" r="6" fill="white"/>
    <circle cx="15" cy="15" r="2" fill="#4CAF50"/>
  </g>
  
  <!-- 渐变定义 -->
  <defs>
    <linearGradient id="gradient" x1="0%" y1="0%" x2="100%" y2="100%">
      <stop offset="0%" style="stop-color:#FFD700;stop-opacity:1" />
      <stop offset="100%" style="stop-color:#FFA500;stop-opacity:1" />
    </linearGradient>
  </defs>
</svg> 